<svg xmlns="http://www.w3.org/2000/svg" viewBox="0 0 100 100" role="img" aria-label="uvolni.to">
<!-- Piktogram uvolni.to bez podkladové plochy — stejné křivky jako favicon,
     jen průhledné pozadí. Krémová je natvrdo: SVG se načítá přes CSS
     background-image, kde currentColor nefunguje (dědilo by se z dokumentu
     obrázku, ne ze stránky). Placeholder vždycky leží na tmavém poli, takže
     jedna barva stačí. Používá se jako výplň fotek, dokud se nenačtou. -->
<g fill="#F7F3EC" transform="translate(50 50) scale(0.98) translate(-139.05 -138.32)">
  <path d="M136.08,101.67s2.97,4.08,2.22,9.28c-.74,5.2-9.25,14.96-8.84,23.59.42,8.63,8.52,20.25,8.96,25.81.44,5.57-2.9,14.61-2.9,14.61,0,0,7.51-7.51,8.07-16.14.56-8.63-5.57-13.08-5.57-24.28s3.69-12.39,4.32-20.53c.63-8.14-6.26-12.34-6.26-12.34"/>
  <path d="M146.38,169.77s2.71-8.03,2.71-14.85-1.46-7.94-1.05-12.25c.42-4.31,1.95-8.56,1.95-8.56,0,0-.42,6.19,1.39,13.01,1.81,6.82,2.09,11.88-5.01,22.64"/>
  <path d="M112.7,137.15c0-17.26,4.43-32.49,11.19-41.74-17.51,6.24-30.07,22.92-30.07,42.57s13.46,37.57,31.96,43.24c-7.82-8.86-13.08-25.26-13.08-44.08"/>
  <path d="M154.2,95.41c6.76,9.24,11.19,24.47,11.19,41.74,0,18.82-5.27,35.22-13.08,44.08,18.5-5.67,31.96-22.88,31.96-43.24s-12.56-36.33-30.07-42.57"/>
</g>
</svg>
